<svg width="48" height="126" viewBox="0 0 48 126" fill="none" xmlns="http://www.w3.org/2000/svg">
<path d="M4.27971 7.54104C7.73865 3.34884 16.4848 -3.09667 23.798 4.6589C31.1112 12.4145 21.245 26.93 15.3977 33.2183C12.5153 34.965 6.50331 37.9345 5.51504 35.8384C4.27971 33.2183 3.5385 27.716 13.6683 22.9998C20.1744 20.205 34.2243 17.2355 38.375 27.716C40.2692 32.2576 40.5986 42.8079 26.7628 48.677L9.46812 56.2754M9.46812 56.2754C2.87966 56.5394 -6.59126 53.398 8.23278 38.7205C12.9271 36.4498 24.2922 31.8558 32.1983 31.6462C36.7279 32.6069 45.4411 37.3581 44.0576 48.677C44.2223 50.9478 41.1422 56.5898 27.5041 60.9916C24.3745 61.6903 17.3743 63.1401 14.4095 63.3497L3.7856 64.9218L9.46812 56.2754ZM9.46812 56.2754C13.7913 55.0527 23.9945 52.974 30.2218 54.4413C38.006 56.2754 41.0928 54.7033 47.2694 64.9218C48.3401 70.1621 47.5659 80.9046 35.9043 81.9526C24.2428 83.0007 16.7155 80.9919 14.4095 79.8565V70.1621M14.4095 70.1621C22.8921 70.9481 41.0928 70.3717 46.0341 61.7777C48.4224 55.664 48.6036 43.1748 30.2218 42.1267C25.7746 42.3014 16.2872 42.8603 13.9154 43.6988L14.4095 62.3017C23.0568 63.0877 41.241 66.8083 44.7988 75.4023C46.693 80.3806 47.3189 90.8611 34.669 92.9572C29.9747 93.1318 19.3509 92.4855 14.4095 88.5029M14.4095 70.1621V88.5029M14.4095 70.1621C19.7626 71.4721 31.556 75.0879 35.9043 79.0705C41.1751 83.4374 48.9001 94.2672 37.6338 102.652C34.0925 103.962 24.6874 105.01 15.3977 98.7214M14.4095 88.5029L15.3977 98.7214M14.4095 88.5029C20.3391 92.6951 32.4454 102.861 33.4337 109.988C33.8455 114.355 32.7419 123.455 25.0334 124.923C23.0568 125.272 18.1649 125.237 14.4095 122.303L15.3977 98.7214" stroke="#84829A" stroke-width="0.49225"/>
</svg>
