<svg width="620" height="202" viewBox="0 0 620 202" fill="none" xmlns="http://www.w3.org/2000/svg">
<g opacity="0.1">
<mask id="mask0_473_563" style="mask-type:alpha" maskUnits="userSpaceOnUse" x="489" y="0" width="131" height="174">
<path d="M607.572 0.930695C613.96 0.930695 619.14 6.1103 619.14 12.4991V173.475H514.044C500.587 173.475 489.678 162.566 489.678 149.108V0.930695H607.572Z" fill="url(#paint0_linear_473_563)" stroke="#6246E5" stroke-width="0.49225"/>
</mask>
<g mask="url(#mask0_473_563)">
<path d="M607.087 43.2725C632.045 43.2726 652.277 63.5051 652.277 88.4629C652.277 113.421 632.045 133.653 607.087 133.653C582.129 133.653 561.897 113.421 561.897 88.4629C561.897 63.505 582.129 43.2725 607.087 43.2725Z" stroke="#6246E5" stroke-width="0.49225"/>
<circle cx="603.5" cy="83.6798" r="50.5708" stroke="#6246E5" stroke-width="0.49225"/>
<circle cx="600.511" cy="79.7938" r="55.3535" stroke="#6246E5" stroke-width="0.49225"/>
<circle cx="597.522" cy="74.1142" r="59.5385" stroke="#6246E5" stroke-width="0.49225"/>
<circle cx="594.682" cy="68.5842" r="63.5739" stroke="#6246E5" stroke-width="0.49225"/>
<circle cx="589.899" cy="62.3068" r="69.8513" stroke="#6246E5" stroke-width="0.49225"/>
</g>
</g>
<g opacity="0.1">
<mask id="mask1_473_563" style="mask-type:alpha" maskUnits="userSpaceOnUse" x="0" y="23" width="237" height="179">
<rect x="236.662" y="23.5742" width="177.21" height="235.788" transform="rotate(90 236.662 23.5742)" fill="url(#paint1_linear_473_563)" stroke="#6246E5" stroke-width="0.49225"/>
</mask>
<g mask="url(#mask1_473_563)">
<path d="M178.844 184.886C178.844 219.064 151.177 246.77 117.048 246.77C82.9186 246.77 55.2508 219.064 55.2507 184.886C55.2507 150.707 82.9186 123.001 117.048 123.001C151.177 123.001 178.844 150.707 178.844 184.886Z" stroke="#6246E5" stroke-width="0.49225"/>
<path d="M192.722 179.98C192.722 218.222 161.765 249.222 123.579 249.223C85.392 249.223 54.4343 218.222 54.4343 179.98C54.4343 141.739 85.3921 110.738 123.579 110.738C161.765 110.738 192.722 141.739 192.722 179.98Z" stroke="#6246E5" stroke-width="0.49225"/>
<path d="M204.56 175.893C204.56 217.747 170.678 251.675 128.885 251.675C87.0911 251.675 53.21 217.747 53.21 175.893C53.21 134.039 87.0911 100.111 128.885 100.111C170.678 100.111 204.56 134.039 204.56 175.893Z" stroke="#6246E5" stroke-width="0.49225"/>
<path d="M218.03 171.806C218.029 216.82 181.59 253.31 136.64 253.31C91.6904 253.31 55.2513 216.82 55.2512 171.806C55.2512 126.792 91.6904 90.3009 136.64 90.3007C181.59 90.3007 218.03 126.791 218.03 171.806Z" stroke="#6246E5" stroke-width="0.49225"/>
<path d="M231.091 167.923C231.091 215.984 192.184 254.945 144.192 254.945C96.1988 254.945 57.2925 215.984 57.2922 167.923C57.2922 119.861 96.1986 80.8993 144.192 80.8993C192.185 80.8994 231.091 119.861 231.091 167.923Z" stroke="#6246E5" stroke-width="0.49225"/>
<path d="M248.235 161.382C248.235 214.184 205.49 256.989 152.763 256.989C100.036 256.989 57.2922 214.184 57.2922 161.382C57.2924 108.58 100.036 65.7756 152.763 65.7754C205.49 65.7754 248.234 108.58 248.235 161.382Z" stroke="#6246E5" stroke-width="0.49225"/>
</g>
</g>
<defs>
<linearGradient id="paint0_linear_473_563" x1="581.6" y1="5.53933" x2="492.008" y2="175.082" gradientUnits="userSpaceOnUse">
<stop stop-color="#747DEF"/>
<stop offset="1" stop-color="#5E3BE1"/>
</linearGradient>
<linearGradient id="paint1_linear_473_563" x1="362.941" y1="29.9572" x2="240.7" y2="261.609" gradientUnits="userSpaceOnUse">
<stop stop-color="#747DEF"/>
<stop offset="1" stop-color="#5E3BE1"/>
</linearGradient>
</defs>
</svg>
