<svg width="60" height="59" viewBox="0 0 60 59" fill="none" xmlns="http://www.w3.org/2000/svg">
<g filter="url(#filter0_d_473_13)">
<path fill-rule="evenodd" clip-rule="evenodd" d="M29.9304 48.1121C41.1439 48.1121 50.2342 39.0218 50.2342 27.8084C50.2342 16.5949 41.1439 7.50464 29.9304 7.50464C18.717 7.50464 9.62671 16.5949 9.62671 27.8084C9.62671 39.0218 18.717 48.1121 29.9304 48.1121Z" fill="white"/>
</g>
<g clip-path="url(#clip0_473_13)">
<path d="M35.4857 20.1382H25.2774C24.1114 20.1382 23.1625 21.0871 23.1625 22.2532V32.4614C23.1625 33.6278 24.1114 34.5764 25.2774 34.5764H35.4857C36.652 34.5764 37.6007 33.6278 37.6007 32.4614V22.2532C37.6007 21.0871 36.652 20.1382 35.4857 20.1382ZM36.7547 32.4614C36.7547 33.1611 36.1853 33.7304 35.4857 33.7304H25.2774C24.5778 33.7304 24.0085 33.1611 24.0085 32.4614V22.2532C24.0085 21.5535 24.5778 20.9842 25.2774 20.9842H35.4857C36.1853 20.9842 36.7547 21.5535 36.7547 22.2532V32.4614Z" fill="black"/>
<path d="M35.0346 21.8584C34.5682 21.8584 34.1886 22.238 34.1886 22.7044C34.1886 23.1708 34.5682 23.5504 35.0346 23.5504C35.501 23.5504 35.8806 23.1708 35.8806 22.7044C35.8806 22.238 35.501 21.8584 35.0346 21.8584Z" fill="black"/>
<path d="M30.3817 23.5503C28.2825 23.5503 26.5747 25.2581 26.5747 27.3572C26.5747 29.4564 28.2825 31.1642 30.3817 31.1642C32.4808 31.1642 34.1886 29.4564 34.1886 27.3572C34.1886 25.2581 32.4808 23.5503 30.3817 23.5503ZM30.3817 30.3182C28.7489 30.3182 27.4207 28.99 27.4207 27.3572C27.4207 25.7245 28.7489 24.3963 30.3817 24.3963C32.0144 24.3963 33.3426 25.7245 33.3426 27.3572C33.3426 28.99 32.0144 30.3182 30.3817 30.3182Z" fill="black"/>
</g>
<defs>
<filter id="filter0_d_473_13" x="0.60283" y="0.285535" width="58.6552" height="58.6552" filterUnits="userSpaceOnUse" color-interpolation-filters="sRGB">
<feFlood flood-opacity="0" result="BackgroundImageFix"/>
<feColorMatrix in="SourceAlpha" type="matrix" values="0 0 0 0 0 0 0 0 0 0 0 0 0 0 0 0 0 0 127 0" result="hardAlpha"/>
<feOffset dy="1.80478"/>
<feGaussianBlur stdDeviation="4.51194"/>
<feColorMatrix type="matrix" values="0 0 0 0 0 0 0 0 0 0 0 0 0 0 0 0 0 0 0.1 0"/>
<feBlend mode="normal" in2="BackgroundImageFix" result="effect1_dropShadow_473_13"/>
<feBlend mode="normal" in="SourceGraphic" in2="effect1_dropShadow_473_13" result="shape"/>
</filter>
<clipPath id="clip0_473_13">
<rect width="14.4382" height="14.4382" fill="white" transform="translate(23.1625 20.1382)"/>
</clipPath>
</defs>
</svg>
